HIERARCHY
ROOT Hips
{
  OFFSET 0 0 0
  CHANNELS 6 Xposition Yposition Zposition Zrotation Xrotation Yrotation
  JOINT Spine
  {
    OFFSET 0 10 0
    CHANNELS 3 Zrotation Xrotation Yrotation
    JOINT Neck
    {
      OFFSET 0 30 0
      CHANNELS 3 Zrotation Xrotation Yrotation
      JOINT Head
      {
        OFFSET 0 8 0
        CHANNELS 3 Zrotation Xrotation Yrotation
        End Site
        {
          OFFSET 0 10 0
        }
      }
    }
    JOINT LeftArm
    {
      OFFSET 15 30 0
      CHANNELS 3 Zrotation Xrotation Yrotation
      JOINT LeftForeArm
      {
        OFFSET 25 0 0
        CHANNELS 3 Zrotation Xrotation Yrotation
        JOINT LeftHand
        {
          OFFSET 25 0 0
          CHANNELS 3 Zrotation Xrotation Yrotation
          End Site
          {
            OFFSET 10 0 0
          }
        }
      }
    }
    JOINT RightArm
    {
      OFFSET -15 30 0
      CHANNELS 3 Zrotation Xrotation Yrotation
      JOINT RightForeArm
      {
        OFFSET -25 0 0
        CHANNELS 3 Zrotation Xrotation Yrotation
        JOINT RightHand
        {
          OFFSET -25 0 0
          CHANNELS 3 Zrotation Xrotation Yrotation
          End Site
          {
            OFFSET -10 0 0
          }
        }
      }
    }
  }
  JOINT LeftUpLeg
  {
    OFFSET 10 -10 0
    CHANNELS 3 Zrotation Xrotation Yrotation
    JOINT LeftLeg
    {
      OFFSET 0 -35 0
      CHANNELS 3 Zrotation Xrotation Yrotation
      JOINT LeftFoot
      {
        OFFSET 0 -40 0
        CHANNELS 3 Zrotation Xrotation Yrotation
        End Site
        {
          OFFSET 0 0 15
        }
      }
    }
  }
  JOINT RightUpLeg
  {
    OFFSET -10 -10 0
    CHANNELS 3 Zrotation Xrotation Yrotation
    JOINT RightLeg
    {
      OFFSET 0 -35 0
      CHANNELS 3 Zrotation Xrotation Yrotation
      JOINT RightFoot
      {
        OFFSET 0 -40 0
        CHANNELS 3 Zrotation Xrotation Yrotation
        End Site
        {
          OFFSET 0 0 15
        }
      }
    }
  }
}
MOTION
Frames:	8
Frame Time:	0.0416667
-53.5812 85.4188 -76.2603 0 0 -0 0 0 -0 0 0 -0 0 0 -0 -7.99999 4.82487e-07 1.75788e-05 -1.41036e-05 -4.82483e-07 -3.20679e-05 -1.70116e-20 6.7269e-14 1.4489e-05 7.99999 3.49319e-06 -1.73614e-05 1.1072e-05 -6.90829e-06 2.94356e-05 2.55508e-06 3.41509e-06 -1.20742e-05 0 0 -0 -0 -6.83019e-06 -0 0 6.83019e-06 -0 1.0234 -5.38155 -2.47474e-06 0.00191055 10.0897 -0.0200474 -1.02477 -4.70789 -0.0589576 
-47.6116 84.9556 -83.1808 -4.40219 -2.18331 94.7625 3.29303 2.5335 -0.339012 -6.1368 -11.2729 -5.51778 6.75658 17.4657 -6.71565 -91.0151 19.1392 -0.35967 12.238 -2.33644 -21.54 3.81625e-06 -14.756 1.49832e-05 84.5591 20.8696 -3.99749 -14.2471 -3.20432 25.2307 7.08976e-06 20.5845 -1.28977e-05 7.47422 -9.69416 -16.3824 0.0657166 20.2073 -0.36834 4.58054 -19.9667 13.3204 -4.51877 -2.6423 -10.3257 0.00179836 9.77374 -0.0200281 -1.72631 -12.3125 -10.6982 
-47.5482 84.9368 -83.268 -4.43067 -2.07901 94.7549 3.14928 2.58567 -0.431368 -5.97014 -11.4851 -5.45658 6.69291 17.3636 -6.55127 -90.9655 18.4167 -0.543048 12.2099 -2.32531 -21.4886 3.71844e-06 -14.3937 1.49585e-05 84.377 20.3894 -3.9618 -14.0568 -3.11556 24.8781 7.13672e-06 20.7796 -1.29142e-05 7.28136 -9.71444 -16.2906 0.0672124 20.3064 -0.372213 4.57955 -20.0143 13.2921 -4.70625 -2.65284 -10.3266 0.00180952 9.80519 -0.02003 -1.72242 -12.2573 -10.7328 
-47.4616 84.9251 -83.3236 -4.40139 -1.97379 94.6918 3.08857 2.6798 -0.174342 -5.84712 -11.3549 -5.41227 6.55378 16.9042 -6.67635 -90.7619 18.3142 -0.677373 12.2603 -2.34524 -21.5804 3.71026e-06 -14.3633 1.49565e-05 83.8946 19.6319 -3.94001 -14.0184 -3.09776 24.8068 7.23071e-06 21.1685 -1.29479e-05 7.19339 -9.59578 -15.879 0.0678404 20.2823 -0.375693 4.4396 -19.8766 12.9862 -4.84527 -2.54365 -10.2619 0.00179154 9.7545 -0.0200269 -1.72269 -12.1219 -10.8217 
-47.4011 84.9261 -83.3922 -4.26079 -2.21955 94.7573 3.4802 2.95686 -0.415453 -6.0673 -11.599 -5.44971 6.77961 17.0344 -6.48254 -90.4337 18.318 -0.600523 12.6543 -2.50373 -22.2986 3.85791e-06 -14.9099 1.49938e-05 83.1139 19.8804 -3.82869 -14.3158 -3.23673 25.3584 7.06627e-06 20.4868 -1.28894e-05 7.60184 -9.75718 -14.7563 0.0716656 20.7664 -0.379284 3.86335 -19.7243 11.4417 -4.59601 -2.38007 -10.312 0.00178394 9.73306 -0.0200256 -1.71415 -12.0733 -10.879 
-47.3385 84.9395 -83.4323 -4.02637 -2.07394 94.7135 3.48669 3.40285 -0.361599 -5.61999 -11.7328 -5.19092 5.77879 17.0479 -6.09833 -89.877 18.8416 -0.496876 13.1472 -2.71025 -23.2012 3.94874e-06 -15.2448 1.50174e-05 82.0833 19.2042 -3.15273 -14.4102 -3.28166 25.5337 7.25601e-06 21.2728 -1.2957e-05 7.6767 -9.6794 -13.235 0.0734113 21.008 -0.381139 3.33875 -19.2538 10.1649 -4.73426 -2.13974 -10.2418 0.00178988 9.74982 -0.0200266 -1.66143 -11.7356 -10.9866 
-47.2494 84.9682 -83.5235 -3.70961 -1.92395 94.8445 3.67231 3.87312 -0.140654 -5.48311 -11.9053 -5.02622 5.00055 17.5071 -5.95189 -89.2123 20.2548 -0.643383 13.1841 -2.72613 -23.269 4.09306e-06 -15.7747 1.5056e-05 81.1217 18.054 -2.41948 -14.3961 -3.27483 25.5074 7.30466e-06 21.473 -1.29748e-05 7.6055 -9.29538 -12.5709 0.0727497 20.9298 -0.38179 3.03657 -19.0896 9.3488 -4.9506 -1.73931 -10.3377 0.00180453 9.79113 -0.0200291 -1.66029 -11.6874 -11.0331 
-47.1418 84.9644 -83.5818 -3.73921 -1.6597 94.6694 3.54627 3.93366 -0.0398591 -4.96627 -12.0134 -4.70141 4.07838 18.281 -5.44331 -89.3305 19.0433 -0.874809 12.911 -2.61019 -22.7683 3.78734e-06 -14.649 1.49758e-05 80.8934 18.1902 -2.18382 -14.5378 -3.34275 25.7711 7.14949e-06 20.8325 -1.29188e-05 7.32977 -9.03304 -12.3217 0.0706408 20.6623 -0.381692 3.00835 -19.127 9.24899 -5.31048 -1.67398 -10.1684 0.00180161 9.7829 -0.0200286 -1.68171 -11.8033 -11.0363 
